<?xml version="1.0" encoding="UTF-8"?>
<!DOCTYPE svg PUBLIC "-//W3C//DTD SVG 1.1//EN" "http://www.w3.org/Graphics/SVG/1.1/DTD/svg11.dtd">
<!-- Creator: CorelDRAW -->
<svg xmlns="http://www.w3.org/2000/svg" xml:space="preserve" width="1.70666in" height="1.70666in" style="shape-rendering:geometricPrecision; text-rendering:geometricPrecision; image-rendering:optimizeQuality; fill-rule:evenodd; clip-rule:evenodd"
viewBox="0 0 1.70666 1.70666"
 xmlns:xlink="http://www.w3.org/1999/xlink">
 <defs>
  <style type="text/css">
   <![CDATA[
    .fil0 {fill:black}
   ]]>
  </style>
 </defs>
 <g id="Layer_x0020_1">
  <metadata id="CorelCorpID_0Corel-Layer"/>
  <g id="_489962920">
   <g>
    <path id="_489963304" class="fil0" d="M1.16974 0.652079l-0.268906 0c-0.0105866,0 -0.0191969,-0.00852362 -0.0191969,-0.0190197 0,-0.0105079 0.00858661,-0.0190197 0.0191969,-0.0190197l0.268906 -7.87402e-006c0.0105866,0 0.0191969,0.00851969 0.0191969,0.0190197 -1.5748e-005,0.0105039 -0.00861024,0.0190276 -0.0191969,0.0190276z"/>
   </g>
   <g>
    <path id="_489963568" class="fil0" d="M1.47835 1.07061l-0.577091 0c-0.0433504,0 -0.0786378,-0.035 -0.0786378,-0.0779921 0,-0.0429961 0.0352874,-0.0779921 0.0786378,-0.0779921l0.577091 0c0.043374,0 0.0786378,0.0349961 0.0786378,0.0779921 0,0.0429921 -0.0352717,0.0779921 -0.0786378,0.0779921zm-0.577091 -0.117961c-0.0221969,0 -0.0402677,0.0179134 -0.0402677,0.0399449 0,0.0220276 0.0180709,0.0399409 0.0402677,0.0399409l0.577091 7.87402e-006c0.0222126,0 0.0402677,-0.0179134 0.0402677,-0.0399409 0,-0.0220315 -0.0180551,-0.0399449 -0.0402677,-0.0399449l-0.577091 -7.87402e-006z"/>
   </g>
   <g>
    <path id="_489963352" class="fil0" d="M0.452961 0.959437l-0.276646 0c-0.0105906,0 -0.0191969,-0.00852362 -0.0191969,-0.0190197 0,-0.0105079 0.00858268,-0.0190197 0.0191969,-0.0190197l0.276646 -1.1811e-005c0.0105906,0 0.0191969,0.00852362 0.0191969,0.0190197 0,0.0105157 -0.0086063,0.0190315 -0.0191969,0.0190315z"/>
   </g>
   <g>
    <path id="_489963640" class="fil0" d="M0.796492 1.53016c-0.0565472,0 -0.112685,-0.00743307 -0.167602,-0.022248 -0.115256,-0.0310827 -0.219472,-0.0932598 -0.30139,-0.179811 -0.0841299,-0.0889252 -0.140555,-0.199583 -0.16311,-0.32002 -0.0598504,-0.319252 0.130677,-0.63185 0.443173,-0.727118 0.00183465,-0.000555118 0.00373622,-0.000854331 0.00564961,-0.000854331l0.287646 0c0.0105866,0 0.0191693,0.00852362 0.0191693,0.0190197 0,0.0105079 -0.00855906,0.0190197 -0.0191693,0.0190197l-0.284744 7.87402e-006c-0.292264,0.0905709 -0.47013,0.38365 -0.414008,0.682961 0.042248,0.225374 0.213732,0.40989 0.43685,0.470094 0.0727913,0.019626 0.147827,0.0254685 0.223031,0.0173976 0.015374,-0.00164567 0.0309291,-0.00392913 0.0461811,-0.00672047 0.22913,-0.0422756 0.40726,-0.198843 0.470409,-0.411252l-0.257043 0c-0.0499291,0.0934252 -0.140768,0.156394 -0.257106,0.177866 -0.0225157,0.00416535 -0.0449921,0.00617323 -0.067122,0.00617323 -0.172925,2.3622e-005 -0.327177,-0.122319 -0.359921,-0.296925 -0.0154252,-0.0822835 -0.0015748,-0.167917 0.0389961,-0.241154 0.0399843,-0.0721929 0.103996,-0.12926 0.180287,-0.160689 0.00230709,-0.00096063 0.00483465,-0.00145276 0.00735039,-0.00145276l0.236854 7.87402e-006c0.0105866,0 0.0191693,0.00851969 0.0191693,0.0190197 0,0.0105079 -0.00855906,0.0190197 -0.0191693,0.0190197l-0.232996 7.87402e-006c-0.139736,0.0594803 -0.220681,0.209516 -0.192791,0.358283 0.033063,0.176335 0.204543,0.293126 0.382331,0.260331 0.108441,-0.0200276 0.191929,-0.0796142 0.235091,-0.167795 0.00319685,-0.00655512 0.0098937,-0.0107165 0.0172559,-0.0107165l0.293921 -7.87402e-006c0.00588583,0 0.0114764,0.00268504 0.0150945,0.00732677 0.00364567,0.00461417 0.00494094,0.0106496 0.0035,0.0163307 -0.0603071,0.239043 -0.254606,0.416484 -0.507102,0.463067 -0.0162205,0.00298819 -0.0327205,0.00539764 -0.0490472,0.00714961 -0.0232953,0.00243701 -0.0464961,0.0036811 -0.0696378,0.0036811z"/>
   </g>
   <g>
    <path id="_489962464" class="fil0" d="M1.16974 0.747193l-0.268906 0c-0.0105866,0 -0.0191969,-0.00852362 -0.0191969,-0.0190197l0 -0.570697c0,-0.0105079 0.00858661,-0.0190197 0.0191969,-0.0190197l0.268906 -7.87402e-006c0.0105866,0 0.0191969,0.00851969 0.0191969,0.0190197l0 0.570697c-1.5748e-005,0.0105039 -0.00861024,0.0190276 -0.0191969,0.0190276zm-0.249732 -0.0380236l0.230559 0 0 -0.532673 -0.230559 0 0 0.532673z"/>
   </g>
   <g>
    <path id="_489962872" class="fil0" d="M1.13137 0.176496l-0.191756 0c-0.0105906,0 -0.0191969,-0.00852362 -0.0191969,-0.0190197l0 -0.0951181c0,-0.0105039 0.00858268,-0.0190197 0.0191969,-0.0190197l0.191756 -7.87402e-006c0.0105866,0 0.0191969,0.00852362 0.0191969,0.0190197l0 0.0951181c0,0.0105039 -0.00859843,0.0190276 -0.0191969,0.0190276zm-0.172587 -0.0380472l0.153413 0 0 -0.0570709 -0.153413 0 0 0.0570709z"/>
   </g>
   <g>
    <path id="_489962944" class="fil0" d="M1.07385 0.652079c-0.0105906,0 -0.0191969,-0.00852362 -0.0191969,-0.0190197l0 -0.323402c0,-0.0105079 0.00858268,-0.0190197 0.0191969,-0.0190197 0.0106102,0 0.0191693,0.00851969 0.0191693,0.0190197l0 0.323394c0,0.0105039 -0.00855906,0.0190276 -0.0191693,0.0190276z"/>
   </g>
   <g>
    <path id="_489962824" class="fil0" d="M1.21766 1.66332l-0.84374 0c-0.0475827,0 -0.0862913,-0.0384094 -0.0862913,-0.0856181 0,-0.0472047 0.0387087,-0.0855906 0.0862913,-0.0855906l0.84374 0c0.0475827,0 0.0862913,0.0383858 0.0862913,0.0855906 0,0.0472087 -0.0387087,0.0856181 -0.0862913,0.0856181zm-0.84374 -0.133185c-0.0264449,0 -0.0479488,0.0213504 -0.0479488,0.0475669 0,0.0262441 0.0215039,0.0475709 0.0479488,0.0475709l0.84374 0c0.0264449,0 0.0479646,-0.0213268 0.0479646,-0.0475709 0,-0.0262165 -0.0215276,-0.0475669 -0.0479646,-0.0475669l-0.84374 0z"/>
   </g>
   <g>
    <path id="_489962248" class="fil0" d="M1.53407 0.655063c-0.0951496,0 -0.172583,-0.0768228 -0.172583,-0.171209 0,-0.0944134 0.0774331,-0.171236 0.172583,-0.171236 0.0951535,0 0.172587,0.0768228 0.172587,0.171236 0,0.0943858 -0.0774252,0.171209 -0.172587,0.171209zm0 -0.304374c-0.0740236,0 -0.134236,0.0597402 -0.134236,0.133165 0,0.0734213 0.0602126,0.133161 0.134236,0.133161 0.0740276,0 0.13424,-0.0597402 0.13424,-0.133161 0,-0.0734409 -0.0602126,-0.133165 -0.13424,-0.133165z"/>
   </g>
   <g>
    <path id="_489962776" class="fil0" d="M0.115039 0.350689c-0.0634252,0 -0.115043,-0.0512008 -0.115043,-0.114142 0,-0.0629409 0.0516102,-0.114142 0.115043,-0.114142 0.063437,0 0.115067,0.0512008 0.115067,0.114142 0,0.0629409 -0.0516142,0.114142 -0.115067,0.114142zm0 -0.190252c-0.0422913,0 -0.0766969,0.0341417 -0.0766969,0.0760945 0,0.0419528 0.0343976,0.0760945 0.0766969,0.0760945 0.0422992,0 0.0767126,-0.0341417 0.0767126,-0.0760945 0,-0.041937 -0.0344213,-0.0760945 -0.0767126,-0.0760945z"/>
   </g>
  </g>
 </g>
</svg>
