<?xml version="1.0" encoding="UTF-8"?>
<!DOCTYPE svg PUBLIC "-//W3C//DTD SVG 1.1//EN" "http://www.w3.org/Graphics/SVG/1.1/DTD/svg11.dtd">
<!-- Creator: CorelDRAW -->
<svg xmlns="http://www.w3.org/2000/svg" xml:space="preserve" width="1.70666in" height="1.70666in" style="shape-rendering:geometricPrecision; text-rendering:geometricPrecision; image-rendering:optimizeQuality; fill-rule:evenodd; clip-rule:evenodd"
viewBox="0 0 1.70666 1.70666"
 xmlns:xlink="http://www.w3.org/1999/xlink">
 <defs>
  <style type="text/css">
   <![CDATA[
    .fil0 {fill:black}
   ]]>
  </style>
 </defs>
 <g id="Layer_x0020_1">
  <metadata id="CorelCorpID_0Corel-Layer"/>
  <g id="_489961048">
   <g>
    <path id="_489961648" class="fil0" d="M0.956232 1.33552l-0.205776 0c-0.167035,0 -0.33022,-0.0582913 -0.459488,-0.164154 -0.00414173,-0.00337402 -0.00652362,-0.00843307 -0.00652362,-0.0137835l0 -0.551598c0,-0.00533071 0.00240551,-0.0104016 0.00652362,-0.0137598 0.129268,-0.105862 0.292453,-0.164165 0.459488,-0.164165l0.205776 0c0.167039,0 0.330224,0.0582874 0.459476,0.164165 0.00414173,0.00337402 0.00651969,0.00842913 0.00651969,0.0137598l0 0.551583c0,0.00535433 -0.00237795,0.0104016 -0.00651969,0.0137835 -0.12926,0.105854 -0.292437,0.164169 -0.459476,0.164169zm-0.636228 -0.186433c0.121866,0.0973465 0.274398,0.15085 0.430461,0.15085l0.205768 -7.87402e-006c0.156067,0 0.308587,-0.0534961 0.430441,-0.15085l-7.87402e-006 -0.534583c-0.12187,-0.0973307 -0.274398,-0.150831 -0.430437,-0.150831l-0.205772 0c-0.156063,0 -0.308571,0.0535 -0.430461,0.150831l7.87402e-006 0.534591zm1.08446 0.00850394l3.54331e-005 0 -3.54331e-005 0z"/>
   </g>
   <g>
    <path id="_489962032" class="fil0" d="M0.302244 0.748335c-0.00516142,0 -0.0102559,-0.00221654 -0.0137756,-0.00652756 -0.00622047,-0.00761024 -0.00510236,-0.018811 0.0025,-0.0250433 0.11861,-0.0971142 0.273197,-0.146378 0.459488,-0.146378l0.205776 0c0.18628,0 0.340902,0.049248 0.459476,0.146378 0.00761811,0.00623228 0.00873622,0.0174331 0.00251575,0.0250433 -0.00624409,0.0076063 -0.0174331,0.00872441 -0.0250354,0.00249606 -0.112075,-0.0917756 -0.259102,-0.138331 -0.436976,-0.138331l-0.205772 0c-0.177874,0 -0.324902,0.0465472 -0.436976,0.138331 -0.00329921,0.0027126 -0.00728346,0.0040315 -0.0112205,0.0040315z"/>
   </g>
   <g>
    <path id="_489962152" class="fil0" d="M0.302244 0.890697c-0.00516142,0 -0.0102559,-0.00223228 -0.0137756,-0.00652756 -0.00622047,-0.00761024 -0.00510236,-0.0188071 0.0025,-0.0250197 0.11861,-0.0971299 0.273197,-0.146378 0.459488,-0.146378l0.205776 0c0.18628,0 0.340902,0.049248 0.459476,0.146378 0.00761811,0.00623228 0.00873622,0.0174331 0.00251575,0.0250197 -0.00624409,0.0076063 -0.0174331,0.00874803 -0.0250354,0.00249606 -0.112075,-0.0917756 -0.259102,-0.138331 -0.436976,-0.138331l-0.205772 0c-0.177874,0 -0.324902,0.0465472 -0.436976,0.138331 -0.00329921,0.0027126 -0.00728346,0.0040315 -0.0112205,0.0040315z"/>
   </g>
   <g>
    <path id="_489962128" class="fil0" d="M0.302244 1.03304c-0.00516142,0 -0.0102559,-0.00221654 -0.0137756,-0.00652756 -0.00622047,-0.0076063 -0.00510236,-0.0188071 0.0025,-0.0250433 0.11861,-0.0971299 0.273197,-0.146378 0.459488,-0.146378l0.205776 0c0.18628,0 0.340902,0.049248 0.459476,0.146378 0.00761811,0.00623622 0.00873622,0.017437 0.00251575,0.0250433 -0.00624409,0.00758661 -0.0174331,0.00872441 -0.0250354,0.0025 -0.112075,-0.0917795 -0.259102,-0.138311 -0.436976,-0.138311l-0.205772 -7.87402e-006c-0.177874,0 -0.324902,0.0465315 -0.436976,0.138311 -0.00329921,0.00271654 -0.00728346,0.00403543 -0.0112205,0.00403543z"/>
   </g>
   <g>
    <path id="_489962104" class="fil0" d="M0.302244 1.17539c-0.00516142,0 -0.0102559,-0.00222047 -0.0137756,-0.0065315 -0.00622047,-0.0076063 -0.00510236,-0.0188071 0.0025,-0.0250394 0.11861,-0.0971181 0.273197,-0.146378 0.459488,-0.146378l0.205776 0c0.18628,0 0.340902,0.049248 0.459476,0.146378 0.00761811,0.00623228 0.00873622,0.0174331 0.00251575,0.0250394 -0.00624409,0.00761024 -0.0174331,0.00872835 -0.0250354,0.0025 -0.112075,-0.0917795 -0.259102,-0.138331 -0.436976,-0.138331l-0.205772 0c-0.177874,0 -0.324902,0.0465433 -0.436976,0.138331 -0.00329921,0.00270866 -0.00728346,0.0040315 -0.0112205,0.0040315z"/>
   </g>
   <g>
    <path id="_489961528" class="fil0" d="M1.40446 1.1398c-0.00177953,0 -0.00358268,-0.000255906 -0.00532283,-0.000814961 -0.00742126,-0.0023189 -0.0124764,-0.00920866 -0.0124764,-0.0169764l0 -0.498201c0,-0.0036378 0.00111811,-0.00716929 0.00319685,-0.0101654l0.0256102 -0.0368858c0.040748,-0.0586299 0.111079,-0.0826772 0.179138,-0.0613071 0.068063,0.0213661 0.112051,0.081315 0.112051,0.152709 0,0.0328465 -0.00991339,0.0644409 -0.0286496,0.0914016l-0.258992 0.372614c-0.00334252,0.00487008 -0.00885827,0.00762598 -0.0145551,0.00762598zm0.0177717 -0.510421l0 0.435894 0.22663 -0.326047 0 0c0.0145748,-0.0209449 0.0222677,-0.0455354 0.0222677,-0.0710748 0,-0.0555118 -0.0342087,-0.102142 -0.0871417,-0.11876 -0.0529291,-0.0166378 -0.107614,0.00209843 -0.139311,0.047685l-0.0224449 0.0323031z"/>
   </g>
   <g>
    <path id="_489961024" class="fil0" d="M0.302228 1.1398c-0.00572047,0 -0.0112165,-0.00275591 -0.0145945,-0.00762992l-0.258992 -0.372618 0 0c-0.0187362,-0.0269606 -0.0286496,-0.0585709 -0.0286496,-0.0914016 0,-0.0713937 0.0439882,-0.131343 0.112051,-0.152709 0.0680591,-0.0213701 0.13839,0.00269291 0.179114,0.0613071l0.0256339 0.0368858c0.00207874,0.00297244 0.00319685,0.00652756 0.00319685,0.0101654l0 0.498201c0,0.00776772 -0.00503937,0.0146575 -0.0124528,0.0169764 -0.00174803,0.000566929 -0.00355512,0.000822835 -0.00530709,0.000822835zm-0.244402 -0.400591l0.226626 0.326051 -7.87402e-006 -0.435882 -0.0224528 -0.032311c-0.0316693,-0.0455866 -0.0863543,-0.0643071 -0.139287,-0.047685 -0.0529291,0.0166181 -0.0871417,0.0632402 -0.0871417,0.11876 -1.5748e-005,0.0255354 0.00768504,0.0501181 0.0222638,0.0710669l0 0z"/>
   </g>
   <g>
    <path id="_489961432" class="fil0" d="M1.42224 0.410272c-0.0882165,0 -0.16,-0.0718307 -0.16,-0.160138 0,-0.0883071 0.0717835,-0.160138 0.16,-0.160138 0.0882402,0 0.160004,0.0718307 0.160004,0.160138 0,0.0883071 -0.0717638,0.160138 -0.160004,0.160138zm0 -0.284689c-0.068626,0 -0.124453,0.055878 -0.124453,0.124551 0,0.0686772 0.0558268,0.124551 0.124453,0.124551 0.0686299,0 0.124469,-0.055874 0.124469,-0.124551 0,-0.0686732 -0.0558622,-0.124551 -0.124469,-0.124551z"/>
   </g>
   <g>
    <path id="_489961312" class="fil0" d="M0.302228 1.61665c-0.0568661,0 -0.103118,-0.0462874 -0.103118,-0.103205 0,-0.0569173 0.046252,-0.103185 0.103118,-0.103185 0.0568465,0 0.103118,0.0462913 0.103118,0.103185 0,0.0568937 -0.0462717,0.103205 -0.103118,0.103205zm0 -0.170815c-0.037248,0 -0.067563,0.0303307 -0.067563,0.0676181 0,0.0372835 0.030315,0.0676181 0.067563,0.0676181 0.037252,0 0.0675472,-0.0303346 0.0675472,-0.0676181 -7.87402e-006,-0.0372874 -0.0302953,-0.0676181 -0.0675472,-0.0676181z"/>
   </g>
  </g>
 </g>
</svg>
